<svg xmlns="http://www.w3.org/2000/svg" width="19.933" height="18.27" viewBox="0 0 19.933 18.27"><defs><style>.a{fill:#fff;}</style></defs><path class="a" d="M21.827,6.611a.819.819,0,0,0-.646-.315H5.6L5.364,3.715a.818.818,0,0,0-.815-.745H2.886a.819.819,0,1,0,0,1.637H3.8l.9,10v.035a.924.924,0,0,0,.011.092l.033.366,0,.02a3.155,3.155,0,0,0,1.177,2.114,2.48,2.48,0,1,0,4.288.682H14.69a2.482,2.482,0,1,0,2.333-1.637H7.881a1.52,1.52,0,0,1-1.4-.922l13.083-.769a.818.818,0,0,0,.746-.619l1.664-6.653a.819.819,0,0,0-.149-.7Z" transform="translate(-2.067 -2.97)"/></svg>