<svg xmlns="http://www.w3.org/2000/svg" width="63.076" height="63.076" viewBox="0 0 63.076 63.076"><defs><style>.a{fill:#08bd7c;}.b{fill:#fff;}</style></defs><g transform="translate(-148 -298)"><circle class="a" cx="31.538" cy="31.538" r="31.538" transform="translate(148 298)"/><g transform="translate(14.15 481.718)"><path class="b" d="M162.419-142.685h-.07a1.539,1.539,0,0,1-1.108-.551l-6.135-7.362a1.532,1.532,0,0,1,.2-2.16,1.532,1.532,0,0,1,2.16.2l5.06,6.071L174.831-158.8a1.534,1.534,0,0,1,2.169,0,1.535,1.535,0,0,1,0,2.169l-13.5,13.5A1.533,1.533,0,0,1,162.419-142.685Z"/></g></g></svg>