<svg xmlns="http://www.w3.org/2000/svg" width="13.967" height="13.996" viewBox="0 0 13.967 13.996"><defs><style>.a{fill:#0075e8;}</style></defs><g transform="translate(27.964 -4.823)"><g transform="translate(-27.964 4.823)"><path class="a" d="M-17.55,18.819c-1.968,0-4.605-1.62-6.715-3.73-3.312-3.311-4.594-6.895-3.05-8.52l1.191-1.192a2.009,2.009,0,0,1,2.734-.036l1.773,1.771A1.944,1.944,0,0,1-21.1,8.97a1.875,1.875,0,0,1-1.273,1.356.4.4,0,0,0-.2.18.251.251,0,0,0-.033.194,4.617,4.617,0,0,0,2.673,2.715.408.408,0,0,0,.438-.236,1.863,1.863,0,0,1,1.349-1.254,1.939,1.939,0,0,1,1.859.517l1.734,1.734a2.005,2.005,0,0,1,.036,2.736l-1.212,1.215A2.474,2.474,0,0,1-17.55,18.819Zm-7.2-12.444a.387.387,0,0,0-.276.1L-26.2,7.654c-.664.7.159,3.459,3.036,6.336,2.9,2.9,5.647,3.724,6.336,3.036l1.177-1.177a.452.452,0,0,0,0-.573h0l-1.734-1.735a.406.406,0,0,0-.385-.108.328.328,0,0,0-.243.221,1.957,1.957,0,0,1-2.275,1.274,6.042,6.042,0,0,1-3.809-3.8,1.753,1.753,0,0,1,.172-1.382,1.97,1.97,0,0,1,1.081-.9.339.339,0,0,0,.239-.25.4.4,0,0,0-.109-.384L-24.45,6.476A.467.467,0,0,0-24.748,6.375Z" transform="translate(27.964 -4.823)"/></g></g></svg>