<svg xmlns="http://www.w3.org/2000/svg" width="15.333" height="15.333" viewBox="0 0 15.333 15.333"><defs><style>.a{fill:#4caf50;}.b{fill:#fafafa;}</style></defs><path class="a" d="M7.669,0h0A7.662,7.662,0,0,0,1.46,12.16L.5,15.008l2.947-.942A7.665,7.665,0,1,0,7.669,0Z"/><path class="b" d="M116.181,124.408a2.163,2.163,0,0,1-1.5,1.082c-.4.085-.924.153-2.685-.577a9.6,9.6,0,0,1-3.817-3.371,4.379,4.379,0,0,1-.91-2.312,2.448,2.448,0,0,1,.784-1.866,1.114,1.114,0,0,1,.784-.275c.095,0,.18,0,.257.009.225.01.338.023.487.379.185.446.635,1.546.689,1.659a.456.456,0,0,1,.033.415,1.325,1.325,0,0,1-.248.352c-.113.13-.22.23-.334.37-.1.122-.22.252-.09.477a6.8,6.8,0,0,0,1.244,1.546,5.636,5.636,0,0,0,1.8,1.109.485.485,0,0,0,.54-.085,9.271,9.271,0,0,0,.6-.794.428.428,0,0,1,.55-.167c.207.072,1.3.613,1.528.725s.374.167.428.262A1.909,1.909,0,0,1,116.181,124.408Z" transform="translate(-104.052 -113.581)"/></svg>